<?xml version="1.0" encoding="utf-8"?>
<!-- Generator: Adobe Illustrator 21.0.0, SVG Export Plug-In . SVG Version: 6.00 Build 0)  -->
<svg version="1.1"
	 id="Ebene_1" xmlns:cc="http://creativecommons.org/ns#" xmlns:dc="http://purl.org/dc/elements/1.1/" xmlns:rdf="http://www.w3.org/1999/02/22-rdf-syntax-ns#"
	 xmlns="http://www.w3.org/2000/svg" xmlns:xlink="http://www.w3.org/1999/xlink" x="0px" y="0px" viewBox="0 0 270 51.4"
	 style="enable-background:new 0 0 270 51.4;" xml:space="preserve">
<g transform="translate(108.1 -160.53)">
	<path d="M48.5,200.4H31.4v-9.6h17.1c2.8,0,5.1,2.1,5.1,4.8S51.3,200.4,48.5,200.4 M31.4,172.3h16.8c2.3,0,4.2,1.8,4.2,4.1
		s-2,4.2-4.3,4.1H31.4V172.3z M58.1,185.7c3.2-2.2,4.4-5.9,4.4-9.9c0-7.6-6.4-13.7-14.3-13.7H19.7v48.6h29.6l0,0
		c8.3,0,15.2-6.4,15.2-14.3C64.5,191.3,61.4,187.5,58.1,185.7 M102,161.9v27.3c0,8.4-4.9,11.9-10.9,11.9s-10.9-3.5-10.9-11.9v-27.4
		h-12v27.4c0,17.5,10.3,22.6,23,22.6s23-5.1,23-22.6v-27.4L102,161.9z M144.6,180.9c-9.8-2.1-13.1-3.1-13.1-6.2
		c0-2.7,3.6-4.1,9.2-4.1c5.3,0,11.7,2.3,15.4,4.5l3.8-9.9c-5.7-2.4-12.5-4.6-21.6-4.6c-11.9,0-19.3,6.9-19.3,15.4
		s6.1,12.2,18.2,14.8c9.4,2,11.9,3.2,11.9,6.1c0,2.9-3.8,4-8.8,4c-6.6,0-12.9-2.2-18.9-4.8l-3.6,9.6c7.1,3.3,14.5,6,23.4,6
		c14.7,0,20.7-7,20.7-15.2C161.9,189.2,156.9,183.5,144.6,180.9 M-83.5,162l-24.6,48.6h14.6l3.7-7.8H-73l-5.2-10.7h-6.6l6.2-13.3
		l15.7,31.8h14.6L-73.9,162H-83.5z M15.2,178.2c0-8.9-6.1-16-18.6-16h-25.2v48.6h11.7v-38.4h14.3c4.2,0,6,2.6,6,5.7
		c0,3.1-1.9,5.6-6.1,5.6h-10l15.2,27h12c0,0-10.4-17.6-10.3-17.6C11.7,190.8,15.2,185.1,15.2,178.2 M-45.8,210.7h12.1v-48.6h-12.1
		C-45.8,162.1-45.8,210.7-45.8,210.7z"/>
</g>
</svg>
