<?xml version="1.0" encoding="utf-8"?>
<!-- Generator: Adobe Illustrator 21.0.0, SVG Export Plug-In . SVG Version: 6.00 Build 0)  -->
<svg version="1.1" id="svg2607" xmlns:svg="http://www.w3.org/2000/svg"
	 xmlns="http://www.w3.org/2000/svg" xmlns:xlink="http://www.w3.org/1999/xlink" x="0px" y="0px" viewBox="0 0 246 78.8"
	 style="enable-background:new 0 0 246 78.8;" xml:space="preserve">
<path id="path2496" d="M211.2,11.5c-0.4,0.7-0.1,1.5,0.5,1.9c7.2,4,13.1,9.8,17.2,16.8c0.4,0.7,1.2,0.9,1.9,0.5
	c0.7-0.4,0.9-1.3,0.5-1.9c-4.4-7.5-10.7-13.6-18.3-17.8C212.4,10.6,211.5,10.8,211.2,11.5"/>
<path id="path2508" d="M137.6,29.1c-0.4,0.7-0.1,1.5,0.6,1.9c0.7,0.4,1.5,0.1,1.9-0.6c12.4-23.5,40.3-33.7,65-23.8
	c0.7,0.3,1.5-0.1,1.8-0.8c0.3-0.7-0.1-1.5-0.8-1.8C180.1-6.5,150.6,4.3,137.6,29.1"/>
<path id="path2512" d="M161.3,21.7c-0.6,0.5-0.7,1.3-0.3,2c0.5,0.6,1.3,0.7,2,0.3c16.7-12.6,40.6-9.3,53.3,7.4
	c0.5,0.6,1.4,0.7,2,0.3c0.6-0.5,0.7-1.3,0.3-2C205,11.8,179.3,8.2,161.3,21.7"/>
<path id="path2516" d="M23.4,43h-0.1l-5.6,16.8h10.8L23.4,43z M16.4,34.1h14.1L47,77.2H34.4L31.2,68H15.1l-3.4,9.2H0L16.4,34.1"/>
<path id="path2520" d="M53.8,34.1h18.1L81,62.7h0.1l9.6-28.6h17.4v43.1H96.9l0.2-33.1H97L86,77.2H75.4L64.9,44.1h-0.1l0.2,33.1H53.8
	V34.1"/>
<path id="path2524" d="M120.7,34.1h30.4v8.1h-18.9v8.9H150v8.1h-17.8V69h19.6v8.1h-31V34.1"/>
<path id="path2528" d="M215.2,66.5c3,1.6,7.1,2.8,11.8,2.8c3.6,0,7.1-0.7,7.1-4.2c0-8-20.4-3-20.4-18.6c0-10.4,10.1-13.2,18.8-13.2
	c4.1,0,8.2,0.6,11.1,1.6l-0.7,8.9c-3-1.4-6.3-2-9.6-2c-2.9,0-7.7,0.2-7.7,4c0,7,20.4,2.3,20.4,17.8c0,11.2-9.4,14.2-18.9,14.2
	c-4,0-9-0.6-12.8-1.9L215.2,66.5"/>
<path id="path2532" d="M206.3,55.6c0,12.8-10.4,23.2-23.2,23.2s-23.2-10.4-23.2-23.2s10.4-23.2,23.2-23.2S206.3,42.8,206.3,55.6"/>
</svg>
