<?xml version="1.0" encoding="utf-8"?>
<!-- Generator: Adobe Illustrator 21.0.0, SVG Export Plug-In . SVG Version: 6.00 Build 0)  -->
<svg version="1.1" id="svg51541" xmlns="http://www.w3.org/2000/svg" xmlns:xlink="http://www.w3.org/1999/xlink" x="0px" y="0px"
	 viewBox="0 0 300 43.9" style="enable-background:new 0 0 300 43.9;" xml:space="preserve">
<g id="layer1" transform="translate(155.34734,-173.06202)">
	<g id="g51752" transform="matrix(2.0359701,0,0,2.0359701,-220.82385,-247.64002)">
		<path id="path50962" d="M68.9,225.8L68.9,225.8c1,0,1.9,0,2.9,0s1.9,0.1,2.8,0.1l0.1-0.1v-0.6l-0.1-0.1c-0.9,0-1.1-0.1-1.4-0.5
			c-0.6-1-1.2-2.5-5.8-13.3h-0.9c-1.5,3.6-3.6,8.5-5.5,12.5c-0.6,1.3-0.6,1.4-1.9,1.4l-0.1,0.1v0.6l0.1,0.1c0.8,0,1.6-0.1,2.4-0.1
			c0.8,0,1.7,0.1,2.4,0.1l0.1-0.1v-0.6l-0.1-0.1c-1.2-0.1-1.7-0.1-1.7-0.6c0-0.3,0-0.6,1.3-3.5h5.5c1.2,2.9,1.4,3.4,1.4,3.7
			c0,0.2,0,0.3-1.6,0.3l-0.1,0.1V225.8L68.9,225.8z M68.7,220.1h-4.7l2.3-5.6L68.7,220.1L68.7,220.1z M76,222.1L76,222.1
			c-0.1,1-0.1,2.1-0.3,3.1l0.1,0.1c0.8,0.4,2.3,0.9,3.9,0.9c4.6,0,6.4-2.9,6.4-5.2c0-2.2-1.4-3.1-3.8-3.4c-3.4-0.5-4.4-0.9-4.4-2.7
			c0-1.5,1-2.8,3.3-2.8c1.6,0,2.6,0.7,2.9,1c0.1,0.1,0.1,0.4,0.1,1.6l0.1,0.1l0.7,0.1l0.1-0.1c0-0.6,0.1-2.1,0.4-2.8l-0.1-0.1
			c-1-0.6-2.8-0.9-4-0.9c-3.5,0-5.6,1.8-5.6,4.7c0,5.7,8.2,2,8.2,6.2c0,2-1.4,3.2-3.8,3.2c-2.3,0-3.3-1.2-3.4-1.5
			c-0.1-0.4-0.1-0.6-0.1-1.4l-0.1-0.1H76L76,222.1z M98.3,212c-2.1,2.3-4.4,4.7-6.3,6.2v-0.7c0-4.9,0.1-5,0.3-5.3
			c0.2-0.2,0.8-0.3,1.6-0.3l0.1-0.1v-0.6l-0.1-0.1c-1,0-2,0.1-3.1,0.1c-1,0-2-0.1-3.1-0.1l-0.1,0.1v0.6l0.1,0.1
			c0.8,0,1.4,0.1,1.6,0.3c0.2,0.2,0.3,0.4,0.3,5.3v2.1c0,4.9-0.1,5-0.3,5.2c-0.2,0.2-0.8,0.3-1.6,0.3l-0.1,0.1v0.6l0.1,0.1
			c1,0,2-0.1,3.1-0.1c1,0,2,0.1,3.1,0.1l0.1-0.1v-0.6l-0.1-0.1c-0.8,0-1.4-0.1-1.6-0.3c-0.2-0.2-0.3-0.4-0.3-5.2v-0.9l6.9,7.2
			c0.5-0.1,1-0.1,1.5-0.1c0.6,0,1.2,0.1,1.8,0.1l0.1-0.1v-0.6l-0.1-0.1c-0.6,0-0.9-0.1-1.8-1l-6.3-6.5l3.9-3.6
			c1.9-1.8,2.7-2,3.6-2.1l0.1-0.1v-0.6l-0.1-0.1c-0.5,0.1-1,0.1-1.5,0.1c-0.5,0-1.3,0-1.7-0.1l-0.1,0.1V212L98.3,212z M103.4,211.9
			L103.4,211.9c0.9,0.1,1.5,0.2,1.7,0.3c0.2,0.2,0.3,0.4,0.3,5.3c0,6.8-0.1,7.1-0.1,7.3c0,0.1-0.2,0.2-0.9,0.6l-0.1,0.1v0.4l0.1,0.1
			c0.7-0.1,1.3-0.1,1.8-0.1c2.5,0,5.6,0,8.6,0.1c0.1-1.3,0.2-2.7,0.3-3.7l-0.1-0.1h-0.7l-0.1,0.1c-0.2,1.2-0.4,2-0.6,2.2
			c-0.3,0.4-4.8,0.4-5.9,0.4c0-1.9,0-3.9,0-5.8v-1.4c0-4.9,0.1-5,0.3-5.3c0.2-0.2,0.8-0.3,1.6-0.3l0.1-0.1v-0.6l-0.1-0.1
			c-1,0-2.1,0.1-3.1,0.1c-1,0-2-0.1-3.1-0.1l-0.1,0.1L103.4,211.9L103.4,211.9z M116.3,211.9L116.3,211.9c0.9,0.1,1.5,0.2,1.7,0.3
			c0.2,0.2,0.3,0.4,0.3,5.3c0,6.8-0.1,7.1-0.1,7.3c0,0.1-0.2,0.2-0.9,0.5l-0.1,0.1v0.4l0.1,0.1c0.7-0.1,1.3-0.1,1.8-0.1
			c2.5,0,5.6,0,8.4,0.1l0.2-0.1c0-1.1,0.1-2.5,0.2-3.4l-0.1-0.1h-0.7l-0.1,0.1c0,0.3-0.3,2-0.5,2.2c-0.5,0.3-4.8,0.3-5.9,0.3
			c0-1.9,0-3.9,0-5.8c0.6,0,1.1,0,1.8,0c1.8,0,2.5,0.1,2.6,0.4c0.1,0.4,0.3,1.2,0.3,1.5l0.1,0.1h0.5l0.1-0.1c0-0.7,0-1.6,0-2.1
			c0-0.8,0-1.7,0-2.5l-0.1-0.1h-0.5l-0.1,0.1c0,0.3-0.1,1.1-0.3,1.4c-0.1,0.2-0.8,0.3-2,0.3c-0.8,0-1.7,0-2.4,0c0-1.8,0-3.6,0.1-5.4
			c0.4,0,1.2-0.1,2-0.1c1.6,0,3.3,0.1,3.6,0.3c0.2,0.2,0.2,1.5,0.2,1.9l0.1,0.1h0.6l0.1-0.1c0.1-1,0.1-2.1,0.2-3.2l-0.1-0.1
			c-1.4,0-4,0.1-7.9,0.1c-1,0-2-0.1-3.1-0.1l-0.1,0.1L116.3,211.9L116.3,211.9z M135.6,218.2l0.3,0.7c0.3,0.1,0.8,0.1,1.5,0.1
			c2.8,0,4.9-1.7,4.9-4.4c0-2.8-2-3.4-5.1-3.4c-1.2,0-2.4,0.1-3.7,0.1c-1,0-2-0.1-3.1-0.1l-0.1,0.1v0.6l0.1,0.1
			c0.8,0,1.4,0.1,1.6,0.3c0.2,0.2,0.3,0.4,0.3,5.3v2.1c0,4.9-0.1,5-0.3,5.2c-0.2,0.2-0.8,0.3-1.6,0.3l-0.1,0.1v0.6l0.1,0.1
			c1,0,2-0.1,3.1-0.1c1,0,2,0.1,3.1,0.1l0.1-0.1v-0.6l-0.1-0.1c-0.8,0-1.4-0.1-1.6-0.3c-0.2-0.2-0.3-0.4-0.3-5.2
			c0-5,0.1-6.3,0.1-7.1c0.5-0.1,1.2-0.3,1.8-0.3c2,0,3.3,0.9,3.3,2.8c0,2.1-1.3,3.2-3.1,3.2c-0.4,0-0.7-0.1-0.9-0.2L135.6,218.2
			L135.6,218.2z M144.1,211.9L144.1,211.9c0.9,0.1,1.5,0.2,1.7,0.3c0.2,0.2,0.3,0.4,0.3,5.3v2.1c0,4.9-0.1,5-0.3,5.2
			c-0.2,0.2-0.8,0.3-1.6,0.3l-0.1,0.1v0.6l0.1,0.1c1,0,2-0.1,3.1-0.1c1,0,2,0.1,3.1,0.1l0.1-0.1v-0.6l-0.1-0.1
			c-0.8,0-1.4-0.1-1.6-0.3c-0.2-0.2-0.3-0.4-0.3-5.2v-2.1c0-4.9,0.1-5,0.3-5.3c0.2-0.2,0.8-0.3,1.6-0.3l0.1-0.1v-0.6l-0.1-0.1
			c-1,0-2.1,0.1-3.1,0.1c-1,0-2-0.1-3.1-0.1l-0.1,0.1V211.9L144.1,211.9z M152,218.4c0,3.5,1.8,7.7,7.5,7.7c4.8,0,8.1-3.6,8.1-7.9
			c0-4.9-3.4-7.2-7.6-7.2C155.5,211,152,213.8,152,218.4 M165.1,218.9c0,3.4-1.7,6.2-5.1,6.2c-3.2,0-5.6-2.9-5.6-7.4
			c0-3.5,2.2-5.7,5.2-5.7C161.9,212,165.1,213.5,165.1,218.9 M169.5,222.1L169.5,222.1c-0.1,1-0.1,2.1-0.3,3.1l0.1,0.1
			c0.8,0.4,2.3,0.9,3.9,0.9c4.6,0,6.4-2.9,6.4-5.2c0-2.2-1.4-3.1-3.8-3.4c-3.4-0.5-4.4-0.9-4.4-2.7c0-1.5,1-2.8,3.3-2.8
			c1.6,0,2.6,0.7,3,1c0.1,0.1,0.1,0.4,0.1,1.6l0.1,0.1l0.7,0.1l0.1-0.1c0-0.6,0.1-2.1,0.4-2.8l-0.1-0.1c-1-0.6-2.8-0.9-4-0.9
			c-3.5,0-5.6,1.8-5.6,4.7c0,5.7,8.2,2,8.2,6.2c0,2-1.4,3.2-3.8,3.2c-2.3,0-3.3-1.2-3.4-1.5c-0.1-0.4-0.1-0.6-0.1-1.4l-0.1-0.1
			H169.5L169.5,222.1z"/>
		<path id="path50966" d="M35.9,219.4c0-4.1,3.3-7.4,7.4-7.4c4.1,0,7.4,3.3,7.4,7.4c0,4.1-3.3,7.4-7.4,7.4
			C39.2,226.8,35.9,223.5,35.9,219.4 M34.5,219.4c0,4.8,3.9,8.7,8.7,8.7s8.7-3.9,8.7-8.7c0-4.8-3.9-8.7-8.7-8.7
			S34.5,214.6,34.5,219.4"/>
		<path id="path50970" d="M43.2,209.4c0.9,1.6,7.7,13.4,8.7,15H34.6C35.5,222.8,42.3,211,43.2,209.4 M32.2,225.8h22.1l-11.1-19.2
			L32.2,225.8z"/>
		<path id="path50982" d="M45.3,216.1c-0.3-0.6-1.1-1.4-1.8-1.5l0-0.5c0.2-0.1,0.4-0.3,0.4-0.6c0-0.4-0.3-0.7-0.7-0.7
			c-0.4,0-0.7,0.3-0.7,0.7c0,0.3,0.2,0.5,0.4,0.6l0,0.5c-0.5,0.1-1,0.4-1.2,0.7c-0.2,0.3-0.3,0.8,0.1,1.3c0.3,0.4,0.6,0.5,1.1,0.7
			l0-1.1c-0.5-0.2-0.2-0.7,0.4-0.5l0,1.8l-0.3,0.1c-0.6,0.2-0.9,0.3-1.2,0.7c-0.4,0.4-0.2,0.9,0.1,1.2c0.2,0.2,0.7,0.3,1.1,0.4
			l0-0.8c0,0-0.5-0.1-0.2-0.4c0,0,0.1-0.1,0.4-0.1v1.4l-0.3,0.1c-0.5,0.2-1.1,0.6-1,1.2c0.1,0.7,0.7,0.8,1.1,0.9v-0.7
			c-0.5-0.1-0.1-0.6,0.2-0.6l0,1.7c-0.4,0.1-0.6,0.2-1,0.4c-0.2,0.2-0.2,0.5,0.2,0.4c0.2,0,0.3,0,0.5-0.1l0,0.6l0.1,0.1l0-0.7
			l0.3-0.1l0,0.8c0.1,0.2,0.2,0.2,0.2,0l0-1c0.1,0,0.3-0.2,0.4-0.3c0.1-0.2,0.1-0.3,0-0.6c-0.1-0.1-0.2-0.3-0.3-0.4l0-0.9
			c0.3-0.1,0.5-0.1,0.8-0.3c0.3-0.2,0.4-0.7,0-1c-0.2-0.2-0.5-0.2-0.8-0.3l0-0.7c0.2-0.1,0.5-0.1,0.7-0.3c0.3-0.3,0.3-0.7,0.2-0.9
			c-0.2-0.3-0.5-0.5-0.8-0.7l0-0.7c0.4,0.1,0.8,0.5,1,1C44.8,217.3,45.9,217.5,45.3,216.1 M43.1,214.6l0-0.4l0.2,0v0.4L43.1,214.6
			L43.1,214.6z M43.4,213.5c0,0.1-0.1,0.2-0.2,0.3c-0.1,0.1-0.2,0.1-0.3,0c-0.1-0.1-0.2-0.2-0.2-0.3c0-0.1,0.1-0.2,0.2-0.3
			c0.1-0.1,0.2-0.1,0.3,0C43.4,213.2,43.4,213.3,43.4,213.5L43.4,213.5L43.4,213.5z M45.2,216.5c0,0.1,0,0.1-0.1,0.2
			c-0.1,0-0.2,0-0.2,0c-0.1,0-0.1-0.1-0.1-0.2c0-0.1,0-0.2,0.1-0.2c0.1,0,0.2,0,0.2,0C45.1,216.4,45.2,216.4,45.2,216.5L45.2,216.5
			L45.2,216.5z"/>
	</g>
</g>
</svg>
