<?xml version="1.0" encoding="UTF-8"?>
<svg width="147px" height="87px" viewBox="0 0 147 87" version="1.1" xmlns="http://www.w3.org/2000/svg" xmlns:xlink="http://www.w3.org/1999/xlink">
    <!-- Generator: Sketch 57.1 (83088) - https://sketch.com -->
    <title>zvo-logo</title>
    <desc>Created with Sketch.</desc>
    <g id="Desktop" stroke="none" stroke-width="1" fill="none" fill-rule="evenodd">
        <g id="Apple-TV" transform="translate(-1329.000000, -7342.000000)" fill="#000000">
            <g id="04-referenzen" transform="translate(-144.000000, 3710.000000)">
                <g id="kunden" transform="translate(144.000000, 2754.000000)">
                    <g id="row" transform="translate(408.000000, 869.000000)">
                        <g id="zvo-logo" transform="translate(921.000000, 9.000000)">
                            <g id="Group">
                                <polygon id="Path" fill-rule="nonzero" points="4.06588343e-15 64.619209 19.7991111 32.0114124 3.38097778 32.0114124 3.38097778 22.8035028 37.9899556 22.8035028 18.3026667 55.4145763 35.8291556 55.4145763 35.8291556 64.6224859 -1.77635684e-15 64.6224859"></polygon>
                                <polygon id="Path" fill-rule="nonzero" points="54.7830222 64.619209 37.2039111 22.8035028 49.0143111 22.8035028 59.1079111 48.2055367 69.2574222 22.8035028 81.0711111 22.8035028 63.2124444 64.619209"></polygon>
                                <path d="M0.444,0 L0.444,17.2787571 L103.277689,17.2787571 C117.679733,17.2787571 129.394756,28.9967232 129.394756,43.3984181 C129.394756,57.800113 117.673156,69.5213559 103.271111,69.5213559 L0.444,69.5213559 L0.444,86.7968362 L103.271111,86.7968362 C127.201067,86.7968362 146.671289,67.3291525 146.671289,43.3984181 C146.671289,19.4709605 127.204356,0 103.277689,0 L0.444,0 Z" id="Path"></path>
                            </g>
                            <path d="M100,21 C88.032281,21 77,29.9583333 77,42.7195767 C77,56.3769841 86.6520193,66 100,66 C113.351251,66 123,56.3769841 123,42.7162698 C123,29.9583333 111.97099,21.0033069 100,21.0033069 M100,31.6349206 C106.453214,31.6349206 111.748578,36.952381 111.748578,42.7757937 C111.748578,50.0509259 106.453214,55.3683862 100,55.3683862 C93.5500569,55.3683862 88.2514221,50.0509259 88.2514221,42.7757937 C88.2514221,36.9556878 93.5500569,31.6382275 100,31.6382275" id="Shape"></path>
                        </g>
                    </g>
                </g>
            </g>
        </g>
    </g>
</svg>